<svg id="Layer_1" data-name="Layer 1" xmlns="http://www.w3.org/2000/svg" viewBox="0 0 426.5 213.5"><defs><style>.cls-1{fill:#24a3ec;}.cls-2{fill:#525252;}</style></defs><path class="cls-1" d="M1035.9,328.6c-.1-34.2-23.2-62.9-56.5-70.8h-1.3a77.1,77.1,0,0,0-15.3-1.6,78.9,78.9,0,0,0-16.9,1.9h-.1l-.6.2a72.8,72.8,0,0,0-55.3,70.5q-.1,34.2,0,68.4A72.5,72.5,0,0,0,946.4,468h1.3a71.3,71.3,0,0,0,15.4,1.7,72.2,72.2,0,0,0,16.8-2h.7a72.8,72.8,0,0,0,55.3-70.6Q1036.2,362.8,1035.9,328.6ZM963,454.4c-32-.1-57.1-25.3-57.3-57.6-.1-11.5,0-23,0-34.4s-.1-22.7,0-34a57.4,57.4,0,0,1,32-51.3,58.4,58.4,0,0,1,25.1-5.6c32,.1,57.2,25.2,57.4,57.5v34.5c0,11.3.1,22.6,0,34a57.5,57.5,0,0,1-32.1,51.3A58.1,58.1,0,0,1,963,454.4Z" transform="translate(-736.7 -256.2)"/><path class="cls-2" d="M867.5,453.7c-10,0-10,0-12.5-9.7-3.5-13.1-7-26.1-10.3-39.1-.8-3.1-2-4.3-5.4-4.3-21.5.2-42.9.2-64.4,0-3.4,0-4.5,1.2-5.3,4.3-3.8,14.9-7.9,29.6-11.7,44.4-.8,3.4-2.1,4.8-5.7,4.4a67.3,67.3,0,0,0-11,0c-4.3.5-5.2-.7-4-5.1q12.3-45.5,24.4-91.1,8.3-30.7,16.6-61.7c2.6-9.7,6.5-18.5,16.7-22.8,16.3-6.9,33.7.3,39.2,17,7.8,24.1,13.4,48.8,20,73.2,7.7,28.2,15.2,56.5,22.7,84.8,1.5,5.7,1.5,5.7-4.3,5.7Zm-60.8-72c8.9,0,17.7-.2,26.5.1,4,.1,5.1-.7,3.9-5-6.8-24.5-13.2-49.1-19.8-73.7a93,93,0,0,0-3-8.9c-1.3-3.2-3.8-4.5-7.1-4.6s-5.9,1.3-7.2,4.4a46.1,46.1,0,0,0-2.5,7.1c-6.9,25.5-13.6,51.1-20.6,76.6-1,3.8.2,4.1,3.4,4Z" transform="translate(-736.7 -256.2)"/><path class="cls-2" d="M1104.9,454.9c-18.5,0-35.4-5-50.5-15.9-3.2-2.3-4.4-3.9-1-7.1s5.4-8.3,9-9.7,7.2,4.1,11.2,6.1c13.6,6.9,27.9,9.6,43,6.7s23.5-12,26-25.1-3.9-25.4-15.7-32.6c-8.3-5.2-17.7-7.6-26.9-10.4-7.5-2.3-14.9-4.7-21.8-8.6-19.3-11-29-29.8-25.5-49.3s18.4-34.1,40.7-37.6,40.7,1.2,58.8,12.6c3.2,2,3.6,3.6.9,6.4a62.9,62.9,0,0,0-6.7,8.7c-1.7,2.5-3,2.6-5.5.9-13-8.7-27.5-11.7-42.9-9.9-13.2,1.4-22.5,9.1-25.2,20.1s3.1,24.8,15.6,31.5c7.1,3.8,14.8,6,22.4,8.3s15.9,4.9,23.3,8.9c26.2,14.2,36.5,43.6,23.5,68.4-9.6,18.2-26,25.9-45.7,27.6C1109.6,455.1,1107.2,454.9,1104.9,454.9Z" transform="translate(-736.7 -256.2)"/><path class="cls-1" d="M970.3,329.7v17.5c-.1,5.6-2.8,8.7-7.4,8.8s-7.7-3.2-7.8-8.5c0-12,0-24,.1-35.9,0-5.2,3.4-8.6,7.9-8.4s7.1,3.5,7.2,8.6Z" transform="translate(-736.7 -256.2)"/></svg>