<svg id="Layer_1" data-name="Layer 1" xmlns="http://www.w3.org/2000/svg" width="611" height="610.8" viewBox="0 0 611 610.8"><defs><style>.cls-1{fill:#fff;}</style></defs><path class="cls-1" d="M750.1,1055.4c-30-.2-60-.2-90.1-.7-16.6-.3-33.2-1.1-49.7-2.3-22.8-1.6-45-6.3-66-15.5q-60.7-26.7-84.4-88.6c-6.4-16.5-10-33.7-11.9-51.2-1.5-12.7-1.9-25.5-2.4-38.3-1.1-25.6-1.1-51.1-1.1-76.7,0-34.9-.1-69.9.2-104.8.2-19.3.9-38.5,1.8-57.7s3.8-38.8,9.7-57.5,14.8-37.3,27.6-53.2c21.9-27.1,49.8-44.9,83.3-54.2a233.1,233.1,0,0,1,45.3-7.6c30.5-2.2,61-2.5,91.5-2.5,42.3,0,84.7,0,127.1.3,14.7.1,29.5.9,44.2,1.4a277.8,277.8,0,0,1,32.8,3.1c28,4.4,54.3,13.3,77.4,30.2a155.3,155.3,0,0,1,56.9,78,221.1,221.1,0,0,1,9.8,46.9c1.6,15,2.1,30,2.5,45.1,1.2,44.2.9,88.5.8,132.8,0,20-.1,40-.6,60-.4,16.1-1,32.2-2.3,48.3-2,26.5-8.3,51.9-20.5,75.6-7.9,15.4-18.5,28.7-30.9,40.7-19.3,18.7-42.5,30.6-68.2,37.9a220.7,220.7,0,0,1-45,7.7c-27.9,2-55.9,2.4-83.9,2.5H750.1Zm250-305.3c0-41.7.8-83.5-1.6-125.2a207.4,207.4,0,0,0-4.2-34.3c-2.9-13.6-7.4-26.6-14.9-38.4-14.2-22.1-34.1-36.5-59.3-43.9a191,191,0,0,0-44.5-6.9c-19.9-.8-40-1.6-60-1.7q-74.6-.1-149.2.3c-20.1.1-40.2.7-60.2,3a140.5,140.5,0,0,0-40.7,10.6A98.1,98.1,0,0,0,516,560.4c-8.2,16.1-12.1,33.4-13.6,51.2-1.1,14.1-1.8,28.3-2.2,42.4-.5,16.6-.7,33.2-.7,49.8,0,38.8.1,77.5.3,116.3,0,20.3.6,40.6,2,60.8a175.6,175.6,0,0,0,5.9,36.7c4.1,14.5,10.1,28.1,19.9,39.8,12,14.3,26.5,24.9,44.1,31.3a167.1,167.1,0,0,0,44.1,9c11.5.9,23.1,1.4,34.6,1.7,19.7.4,39.3.7,58.9.7,54.9-.1,109.8,1,164.6-1.7a208,208,0,0,0,37.8-4.8c13.7-3.2,26.8-8,38.5-16,20.6-14.1,34.2-33.3,41.2-57.2a183.6,183.6,0,0,0,6.9-41.6c.8-16.5,1.5-33.1,1.7-49.7C1000.3,802.8,1000.1,776.4,1000.1,750.1Z" transform="translate(-444.5 -444.6)"/><path class="cls-1" d="M906.9,750c-.4,86.8-70.3,156.9-157.3,156.7A156.9,156.9,0,1,1,906.9,750Zm-55.2-.1A101.6,101.6,0,0,0,750.1,648.1c-56.2-.1-102,45.5-102,101.6a101.8,101.8,0,0,0,203.6.2Z" transform="translate(-444.5 -444.6)"/><path class="cls-1" d="M949.6,586.9a36.6,36.6,0,1,1-36.4-36.7A36.6,36.6,0,0,1,949.6,586.9Z" transform="translate(-444.5 -444.6)"/></svg>