<svg id="Layer_1" data-name="Layer 1" xmlns="http://www.w3.org/2000/svg" width="797.6" height="717.9" viewBox="0 0 797.6 717.9"><defs><style>.cls-1{fill:#fff;}</style></defs><path class="cls-1" d="M398.1,764.6l2.8-4.4L569.2,496.9a5.8,5.8,0,0,1,8-1.7,5.2,5.2,0,0,1,2.1,2.5c28.1,63,52.4,141.3,41,190.1-4.8,20.1-18.1,47.3-33.1,72.4a103.5,103.5,0,0,1-6.3,10.7,5.3,5.3,0,0,1-4.8,2.5h-173a5.8,5.8,0,0,1-5-8.8Z" transform="translate(-350.7 -354.7)"/><path class="cls-1" d="M1148.3,813.5v41.7a6,6,0,0,1-3.6,5.5c-13,5.5-57.6,26-76.1,51.8-47.4,65.9-83.5,160.1-164.4,160.1H567c-119.5,0-216.3-97.2-216.3-217.1v-3.9a5.8,5.8,0,0,1,5.8-5.8H544.4a6.5,6.5,0,0,1,6.2,7.2,63.3,63.3,0,0,0,6.7,36,66,66,0,0,0,59.3,36.9h93V853.2h-92a5.8,5.8,0,0,1-5.8-6,6.4,6.4,0,0,1,1-3.3l3.4-4.9c12-17.3,23.1-35.1,33.5-53.5a425.7,425.7,0,0,0,23.2-46.3c1.3-2.8,2.4-5.8,3.4-8.6,1.8-5.1,3.7-9.8,5-14.5s2.4-8.2,3.5-12.1a189.4,189.4,0,0,0,4.4-42.4,171.4,171.4,0,0,0-.8-17.6,172.2,172.2,0,0,0-1.9-19c-.6-5.7-1.4-11.3-2.5-16.9-1.4-8.5-3.2-16.9-5.3-25.2l-.8-3.2c-1.6-5.8-2.9-11.3-4.8-17.1q-7.6-26.6-17.7-52.4c-2.3-6.6-4.9-12.9-7.6-19.2-3.9-9.5-7.9-18.1-11.6-26.3-1.8-3.7-3.4-7.1-5-10.6s-3.6-7.7-5.5-11.5-2.9-5.6-4-8.2l-11.3-21a3.7,3.7,0,0,1,1.4-5.1,3.8,3.8,0,0,1,2.8-.3l71.1,19.3h.4l9.4,2.6,10.3,2.9,3.8,1.1V391.6a36.7,36.7,0,0,1,36.6-36.9A35.9,35.9,0,0,1,772,365.5a37.1,37.1,0,0,1,10.7,26.1v62.8l7.6,2.1a5.6,5.6,0,0,1,1.7.9l8,6c2.6,2.1,5.5,4.7,8.9,7.3,6.9,5.6,15,12.7,24,20.8,2.4,2.1,4.7,4.2,6.9,6.4,12.9,11.8,25.2,24.3,36.9,37.3L887,547.3c3.4,4.3,7.1,8.4,10.3,12.6s8.7,11.4,12.6,17.5c1.9,2.8,4,5.7,5.8,8.6,5,7.6,9.5,15.6,13.7,23.5,1.8,3.6,3.7,7.6,5.3,11.5a173.2,173.2,0,0,1,10.8,32.1,32.2,32.2,0,0,1,1.5,7.1v.6a65.1,65.1,0,0,1,1.4,10,105.8,105.8,0,0,1-1.9,33.2,115,115,0,0,1-3.9,13.9c-1.6,4.5-3.2,9.2-5.3,13.7a183.9,183.9,0,0,1-14.2,27.1c-1.8,3.2-4,6.6-6.1,9.8s-4.7,6.5-6.8,9.7-6.1,8.1-9.3,11.9a142.8,142.8,0,0,1-8.9,11.3q-6.4,7.6-13.2,15c-2.7,3.1-5.5,6.3-8.5,9.2s-5.7,6-8.4,8.7c-4.4,4.4-8.2,7.9-11.3,10.7l-7.3,6.7a5.8,5.8,0,0,1-3.9,1.5H782.7v72.7H854a66.3,66.3,0,0,0,43.3-16.1,497.4,497.4,0,0,0,44.1-43.3,5.9,5.9,0,0,1,2.7-1.7l196.8-56.9a6,6,0,0,1,7.2,4.1,7.7,7.7,0,0,1,.2,1.5Z" transform="translate(-350.7 -354.7)"/></svg>