<svg xmlns="http://www.w3.org/2000/svg" xmlns:xlink="http://www.w3.org/1999/xlink" viewBox="0 0 267.7 222"><defs><style>.cls-1{fill:url(#linear-gradient);}.cls-2{fill:#fff;}</style><linearGradient id="linear-gradient" x1="938.13" y1="322.91" x2="1182.68" y2="431.87" gradientUnits="userSpaceOnUse"><stop offset="0" stop-color="#e6aa2c"/><stop offset="0.05" stop-color="#e3a22c"/><stop offset="1" stop-color="#b71b32"/></linearGradient></defs><g id="Layer_1" data-name="Layer 1"><path class="cls-1" d="M1176.5,377.3c7.7-36.5-13.9-57.1-13.9-57.1s-42.3-45.6-54.3-53.7a51.1,51.1,0,0,0-10.4-5.3,60.8,60.8,0,0,0-21-3.7H989.6a61.9,61.9,0,0,0-39,13.6,46.8,46.8,0,0,0-8.6,8.8s-12,11-14.6,39.6,25.2,50.4,25.2,50.4a33.5,33.5,0,0,0-19.5,9.3c-18.2,21.2-4.8,41.3-4.8,41.3s38.4,40.8,48,50.4,23.1,8.6,23.1,8.6H1020c39.4,0,50.4-15.8,52.3-18.2,10.1,17.3,26.4,18.2,26.4,18.2h26.4c40.8,0,53.3-24.9,53.3-24.9s12.9-14.9,12.9-36.5S1179.4,382.1,1176.5,377.3Zm-42.3,12.8a45.6,45.6,0,0,1-42.4,28.7h-26.4c-10.6-.1-18.4-7.6-18.5-17.6s7.5-17.8,18-18.1c8.6-.3,17.3-.1,25.9-.1,6.9-.1,11.2-3.9,11.3-9.9s-4.3-10.2-11.5-10.3h-25.5c-8.3-.1-14.2-4.2-17.2-12a16.9,16.9,0,0,1,3.2-17.8c3.4-4,8.2-5.8,13.5-6s10,.1,15-.1,10.1-4.2,10.2-10-4-10-10.1-10c-11.7-.1-23.3.1-35,.1-17.6,0-35.2-.2-52.8-.1a10,10,0,0,0-.5,20c11.4.2,21.3,4.2,30.2,11.1,11.2,11,16.9,24.2,15.3,40.1-2.1,22-21.1,39.9-43.2,40.7l-15.9.2-17-.2c-10.3-.2-17.9-7.5-18.1-17.4s7.1-18,17.6-18.3,20-.1,30-.1c7.1,0,11.3-3.6,11.6-9.6s-3.9-10.3-11.2-10.6c-25.6-1.3-44.5-21.7-43.9-47.6s20.6-44.1,46-44.2l79.9-.2c6.1.3,12.1.5,18.2,1.8,22.4,4.6,42.1,31.5,31.1,60.7-1.1,3-.8,4.5,1.5,6.7A45.9,45.9,0,0,1,1134.2,390.1Z" transform="translate(-923.6 -257.5)"/><path class="cls-2" d="M1123.5,340c-2.3-2.2-2.6-3.7-1.5-6.7,11-29.2-8.7-56.1-31.1-60.7-6.1-1.3-12.1-1.5-18.2-1.8l-79.9.2c-25.4.1-45.5,19.6-46,44.2s18.3,46.3,43.9,47.6c7.3.3,11.4,4.3,11.2,10.6s-4.5,9.6-11.6,9.6c-10,0-20-.2-30,.1s-17.8,8.1-17.6,18.3,7.8,17.2,18.1,17.4l17,.2,15.9-.2c22.1-.8,41.1-18.7,43.2-40.7,1.6-15.9-4.1-29.1-15.3-40.1-8.9-6.9-18.8-10.9-30.2-11.1a10,10,0,0,1,.5-20c17.6-.1,35.2.1,52.8.1,11.7,0,23.3-.2,35-.1,6.1,0,10.1,4.3,10.1,10s-4.1,9.9-10.2,10-10,0-15,.1-10.1,2-13.5,6a16.9,16.9,0,0,0-3.2,17.8c3,7.8,8.9,11.9,17.2,12h25.5c7.2.1,11.6,4,11.5,10.3s-4.4,9.8-11.3,9.9c-8.6,0-17.3-.2-25.9.1-10.5.3-18.2,8.2-18,18.1s7.9,17.5,18.5,17.6h26.4a45.8,45.8,0,0,0,31.7-78.8Z" transform="translate(-923.6 -257.5)"/></g></svg>