<svg id="Layer_1" data-name="Layer 1" xmlns="http://www.w3.org/2000/svg" width="597.3" height="611" viewBox="0 0 597.3 611"><defs><style>.cls-1{fill:#fff;}</style></defs><path class="cls-1" d="M1048.7,1055.4h-3.6c-56.8,0-113.6-.1-170.5,0-2.8,0-4.4-.7-6-3L770.7,909.6l-61.6-89.7a8.1,8.1,0,0,0-1.3-1.5l-17.6,20.4q-68.7,80-137.5,160l-46.4,54a6.4,6.4,0,0,1-5.7,2.6c-16.1-.1-32.2,0-49.3,0L684.5,784.2l-233-339.4,3.2-.2H626.2c2.6,0,3.8,1.1,5,3l55,80q45.1,65.8,90.4,131.6l6.8,10,13.4-15.5L941.8,485c10.9-12.8,21.8-25.5,32.9-38.2a6.1,6.1,0,0,1,4.1-2.1c16-.2,32-.1,48.1-.1h2.2L806.8,703.2ZM523.2,484.3l1.3,2.1,88.6,126.7q78.4,112.4,157,224.8,61.9,88.5,123.7,177.1a5.3,5.3,0,0,0,5,2.5h77.6l-2.1-3.2L868.6,863.1Q815.4,786.8,762,710.5L655.6,558.1l-49.9-71.3c-.8-1.1-2.3-2.4-3.5-2.4C576.1,484.2,550,484.3,523.2,484.3Z" transform="translate(-451.3 -444.5)"/></svg>